<mxfile host="app.diagrams.net" modified="2024-02-19T18:35:44.538Z" agent="Mozilla/5.0 (X11; Linux x86_64; rv:122.0) Gecko/20100101 Firefox/122.0" version="21.7.5" etag="f_cBT2lJo1A1qxXAzTC5" type="github">
  <diagram name="Page-1" id="TF7_7_hkC6U72rxev6qj">
    <mxGraphModel>
      <root>
        <mxCell id="0" />
        <mxCell id="1" parent="0" />
      </root>
    </mxGraphModel>
  </diagram>
</mxfile>
